<svg xmlns="http://www.w3.org/2000/svg" viewBox="0 0 387.01 110.76"><defs><style>.cls-1{fill:#138ebf;}.cls-2{fill:#14578c;}.cls-3{fill:#012935;}.cls-4{fill:#231f20;}.cls-5{fill:#ced9de;}.cls-6{fill:#484d4e;}.cls-7{fill:#fff;}</style></defs><g id="Layer_2" data-name="Layer 2"><g id="Layer_1-2" data-name="Layer 1"><g id="Layer_2-2" data-name="Layer 2"><g id="Layer_1-2-2" data-name="Layer 1-2"><ellipse class="cls-1" cx="55.2" cy="55.38" rx="36.67" ry="36.77"/><path class="cls-2" d="M58.46,110.76H51.93v-6.43a46.49,46.49,0,0,1-6.21-.81l-1.65,6.21-6.3-1.7,1.66-6.19a50.69,50.69,0,0,1-5.8-2.42L30.43,105l-5.64-3.26L28,96.16a47.35,47.35,0,0,1-5-3.84l-4.54,4.55-4.61-4.62,4.53-4.55a50,50,0,0,1-3.83-5L9,85.92,5.77,80.26l5.53-3.21a49.12,49.12,0,0,1-2.4-5.82L2.72,72.91,1,66.58,7.21,64.9a48.47,48.47,0,0,1-.8-6.23H0V52.13H6.41a48.71,48.71,0,0,1,.84-6.24L1.08,44.24l1.68-6.32,6.18,1.66a50.86,50.86,0,0,1,2.4-5.82L5.81,30.5l3.26-5.66,5.54,3.21a47.18,47.18,0,0,1,3.83-5l-4.53-4.55,4.6-4.62,4.54,4.55a47.35,47.35,0,0,1,5-3.84L24.82,9l5.65-3.26,3.19,5.55a50.62,50.62,0,0,1,5.8-2.41L37.81,2.74,44.11,1l1.65,6.2A48.09,48.09,0,0,1,52,6.43V0h6.53V6.43a48.09,48.09,0,0,1,6.22.8L66.37,1l6.31,1.71L71,8.93a50.62,50.62,0,0,1,5.8,2.41L80,5.78,85.62,9l-3.2,5.56a47.35,47.35,0,0,1,5,3.84l4.54-4.55,4.61,4.62L92,23.06a50,50,0,0,1,3.83,5l5.54-3.21,3.27,5.66-5.54,3.26a47.49,47.49,0,0,1,2.4,5.82l6.18-1.66,1.69,6.32-6.19,1.66a48.47,48.47,0,0,1,.8,6.23h6.41v6.53H104a48.39,48.39,0,0,1-.8,6.24l6.18,1.66-1.69,6.32-6.18-1.66A46.85,46.85,0,0,1,99.1,77l5.53,3.21-3.26,5.65-5.54-3.2a49.88,49.88,0,0,1-3.83,5l4.53,4.54-4.61,4.63-4.54-4.56a47.35,47.35,0,0,1-5,3.84l3.2,5.56L80,105l-3.19-5.56a50.69,50.69,0,0,1-5.8,2.42L72.62,108l-6.29,1.68-1.64-6.13a48.31,48.31,0,0,1-6.22.8Zm-6.29-.21h6.06v-6.43h.11a49.12,49.12,0,0,0,6.4-.82h.11l1.65,6.17,5.86-1.57-1.65-6.18h.09a48,48,0,0,0,6-2.48h.09l3.2,5.54,5.25-3-3.18-5.55.08-.05a48.8,48.8,0,0,0,5.12-3.95l.07-.07,4.53,4.54,4.29-4.36L91.7,87.77l.08-.08a48.76,48.76,0,0,0,3.92-5.14l.07-.08,5.53,3.19,3-5.26L98.8,77.2v-.1a48,48,0,0,0,2.48-6V71l6.16,1.66L109,66.8l-6-1.73V65a49.46,49.46,0,0,0,.84-6.42v-.11h6.39V52.35h-6.39v-.11a51.52,51.52,0,0,0-.85-6.42v-.1l6.17-1.66-1.58-5.89-6.15,1.67v-.11a49.4,49.4,0,0,0-2.48-6v-.1l5.52-3.2-3.16-5.23-5.52,3.2-.07-.09a48.73,48.73,0,0,0-3.93-5.13l-.07-.08,4.52-4.53-4.28-4.35-4.52,4.53-.08-.06a48.68,48.68,0,0,0-5.11-3.95h-.09l3.19-5.55-5.25-3-3.2,5.48h-.08a48.11,48.11,0,0,0-6-2.48h-.1L72.35,3,66.5,1.3,64.9,7.53h-.11a51,51,0,0,0-6.4-.85h-.1V.21H52.22V6.64h-.11a49,49,0,0,0-6.39.84h-.11L43.9,1.31,38,2.89l1.65,6.17h-.1a47.7,47.7,0,0,0-6,2.48h-.1L30.34,6,25.07,9.06l3.2,5.55h-.08a50,50,0,0,0-5.12,3.93l-.08.07-4.52-4.53-4.3,4.34L18.7,23l-.07.07a49.26,49.26,0,0,0-3.94,5.14v.08l-5.59-3-3,5.27,5.52,3.21v.1a50.08,50.08,0,0,0-2.48,6v.11L2.9,38.18,1.33,44.06l6.16,1.66v.1a49.42,49.42,0,0,0-.82,6.42v.11H.27v6.09h6.4v.11A49.27,49.27,0,0,0,7.49,65v.1H7.4L1.33,66.7,2.9,72.58l6.16-1.66V71a49.54,49.54,0,0,0,2.48,6v.1L6,80.29l3,5.27,5.54-3.2v.09a47.72,47.72,0,0,0,3.93,5.13l.07.08L14.06,92.2l4.3,4.35L22.89,92l.07.06a48.8,48.8,0,0,0,5.12,4l.09,0L25,101.63l5.26,3.05,3.2-5.54h.09a47.7,47.7,0,0,0,6,2.48h.1L38,107.9l5.86,1.57,1.65-6.17h.11a49.12,49.12,0,0,0,6.4.82h.11Z"/><path class="cls-3" d="M14.18,72.19l4.27-1.81.43,1.05-4.26,1.81Z"/><path class="cls-3" d="M16.78,65.53l.34,1.08L15,69.27l2.73-.87L18,69.48l-4.41,1.41-.36-1.08,2.17-2.67L12.7,68l-.35-1.08Z"/><path class="cls-3" d="M16.29,63.78a1.49,1.49,0,0,1-.36.72,1.27,1.27,0,0,1-.72.4L15,63.72a.55.55,0,0,0,.36-.25.56.56,0,0,0,.05-.42.59.59,0,0,0-.18-.37.43.43,0,0,0-.59.08h0a.85.85,0,0,0-.13.31,4.29,4.29,0,0,0-.07.5,5.32,5.32,0,0,1-.14.78,1.26,1.26,0,0,1-.31.55,1.07,1.07,0,0,1-.65.33A1.2,1.2,0,0,1,12.22,65a1.92,1.92,0,0,1-.59-1.13,2,2,0,0,1,.13-1.28,1.27,1.27,0,0,1,.91-.68l.23,1.19a.51.51,0,0,0-.32.23.54.54,0,0,0-.05.41.4.4,0,0,0,.17.3.38.38,0,0,0,.33.07.39.39,0,0,0,.3-.28,3.22,3.22,0,0,0,.14-.7c0-.26.09-.51.15-.77a1.37,1.37,0,0,1,.31-.55,1.08,1.08,0,0,1,.63-.33,1.25,1.25,0,0,1,.74.07,1.37,1.37,0,0,1,.62.47,2.05,2.05,0,0,1,.36.86A2.58,2.58,0,0,1,16.29,63.78Z"/><path class="cls-3" d="M10.9,57.39l.9-.08.1,1.23,3.72-.32.09,1.13-3.7.31.1,1.22-.9.08Z"/><path class="cls-3" d="M10.89,55.25l4.64-.08V56.3l-4.63.08Z"/><path class="cls-3" d="M11.12,50.55l.9.06-.08,1.22,3.72.26-.07,1.13L11.86,53l-.08,1.22-.9-.06Z"/><path class="cls-3" d="M11.47,48.17l2.73.5a.89.89,0,0,0,.66-.08.75.75,0,0,0,.33-.55.77.77,0,0,0-.11-.64.92.92,0,0,0-.59-.32l-2.74-.5L12,45.47l2.72.5a1.91,1.91,0,0,1,1,.45,1.73,1.73,0,0,1,.51.81,2.2,2.2,0,0,1,0,1,2.07,2.07,0,0,1-.38.92,1.68,1.68,0,0,1-.76.56,2,2,0,0,1-1.08.06l-2.73-.5Z"/><path class="cls-3" d="M13.53,43.18l.9.27L14.85,42l.84.25-.42,1.45,1,.29.48-1.64.87.26-.81,2.72L12.34,44l.81-2.72.87.26Z"/><path class="cls-3" d="M18.6,39.31a2.38,2.38,0,0,1-1.14.43,2.53,2.53,0,0,1-2.21-1.05,2.26,2.26,0,0,1-.39-1.15,2.53,2.53,0,0,1,1-2.16A2.2,2.2,0,0,1,17,35a2.52,2.52,0,0,1,2.21,1,2.15,2.15,0,0,1,.4,1.14,2.41,2.41,0,0,1-.23,1.21A2.43,2.43,0,0,1,18.6,39.31ZM18.5,37a1.6,1.6,0,0,0-1.77-.84A1.25,1.25,0,0,0,16,37.73a1.61,1.61,0,0,0,1.77.84,1.14,1.14,0,0,0,.71-.65A1.12,1.12,0,0,0,18.5,37Z"/><path class="cls-3" d="M18.48,30.47l.77.48-1,1.6.82.53.75-1.2.75.47-.75,1.2,1.59,1-.6,1L16.88,33Z"/><path class="cls-3" d="M24,27a1.3,1.3,0,0,1,0,.78,2,2,0,0,1-.45.86l-.45.54,1.28,1.06-.73.87-3.55-3,1.17-1.41a2.16,2.16,0,0,1,.75-.59,1.36,1.36,0,0,1,.77-.11,1.73,1.73,0,0,1,.72.35A1.5,1.5,0,0,1,24,27Zm-1,.66a.67.67,0,0,0-.66-.55.7.7,0,0,0-.42.27l-.4.48.9.74.39-.47A.68.68,0,0,0,23.08,27.65Z"/><path class="cls-3" d="M28.26,26.18l-1.91-.6-.19.19L27.37,27l-.82.78-3.2-3.35,1.36-1.31a2.08,2.08,0,0,1,.81-.5,1.3,1.3,0,0,1,.78,0A1.48,1.48,0,0,1,27,23a1.35,1.35,0,0,1,.39.78,1.43,1.43,0,0,1-.21.9l2,.59Zm-2.66-1,.51-.48a.66.66,0,0,0,.23-.43.6.6,0,0,0-.18-.42.61.61,0,0,0-.4-.19.66.66,0,0,0-.45.21l-.5.48Z"/><path class="cls-3" d="M30.5,23.9a2.24,2.24,0,0,1-1.2-.16,2.5,2.5,0,0,1-1.46-2A2.32,2.32,0,0,1,28,20.58,2.52,2.52,0,0,1,30,19.15a2.25,2.25,0,0,1,1.2.17,2.51,2.51,0,0,1,1.45,2,2.2,2.2,0,0,1-.18,1.19A2.51,2.51,0,0,1,30.5,23.9Zm1-2.12a1.61,1.61,0,0,0-1.17-1.57,1.27,1.27,0,0,0-1.43,1.05,1.62,1.62,0,0,0,1.17,1.58,1.26,1.26,0,0,0,1.43-1.06Z"/><path class="cls-3" d="M34.56,16l.45.79-1.64.94.49.84,1.23-.7.43.76-1.22.72L35.24,21l-1,.56-2.32-4Z"/><path class="cls-3" d="M37.05,15.85l.39.84,1.38-.63.36.79-1.38.63.42.93,1.56-.71.37.84-2.58,1.18L35.65,15.5l2.58-1.17.38.82Z"/><path class="cls-3" d="M41.69,17.83a1.53,1.53,0,0,1-.77-.25,1.43,1.43,0,0,1-.48-.66l1.13-.38a.62.62,0,0,0,.3.32.61.61,0,0,0,.42,0,.63.63,0,0,0,.34-.24.39.39,0,0,0,0-.35.37.37,0,0,0-.21-.23.73.73,0,0,0-.33-.08,4.17,4.17,0,0,0-.5,0,5.22,5.22,0,0,1-.79,0,1.43,1.43,0,0,1-.59-.23,1.19,1.19,0,0,1-.42-.61A1.22,1.22,0,0,1,39.94,14a2.24,2.24,0,0,1,2.32-.78,1.32,1.32,0,0,1,.8.8l-1.13.39a.46.46,0,0,0-.27-.29.6.6,0,0,0-.69.21.4.4,0,0,0,0,.34.37.37,0,0,0,.31.26A2.8,2.8,0,0,0,42,15a6.79,6.79,0,0,1,.78,0,1.38,1.38,0,0,1,.59.23,1,1,0,0,1,.4.57,1.28,1.28,0,0,1,0,.75,1.34,1.34,0,0,1-.39.67,1.89,1.89,0,0,1-.79.48A2.42,2.42,0,0,1,41.69,17.83Z"/><path class="cls-3" d="M45.79,16.6a1.48,1.48,0,0,1-.74-.34,1.36,1.36,0,0,1-.42-.71l1.18-.25a.59.59,0,0,0,.26.34.56.56,0,0,0,.42,0,.57.57,0,0,0,.36-.2.38.38,0,0,0,.07-.34.39.39,0,0,0-.17-.26,1.21,1.21,0,0,0-.32-.11,4,4,0,0,0-.5-.06,5.26,5.26,0,0,1-.78-.12,1.31,1.31,0,0,1-.56-.29,1.1,1.1,0,0,1-.35-.65,1.23,1.23,0,0,1,.23-1.09,2,2,0,0,1,1.12-.63,1.94,1.94,0,0,1,1.28.09,1.33,1.33,0,0,1,.71.89l-1.19.26a.51.51,0,0,0-.24-.3.65.65,0,0,0-.41,0,.49.49,0,0,0-.3.18.39.39,0,0,0-.06.33.39.39,0,0,0,.29.3,2.7,2.7,0,0,0,.7.12,6.51,6.51,0,0,1,.77.13,1.31,1.31,0,0,1,.56.29,1.05,1.05,0,0,1,.35.63,1.37,1.37,0,0,1,0,.75,1.43,1.43,0,0,1-.46.63,2,2,0,0,1-.85.38A2.53,2.53,0,0,1,45.79,16.6Z"/><path class="cls-3" d="M49.67,11.31l.64,4.59-1.12.15-.63-4.59Z"/><path class="cls-3" d="M52.28,15.43a2.2,2.2,0,0,1-.9-.81,2.5,2.5,0,0,1-.11-2.44,2.27,2.27,0,0,1,.83-.88,2.47,2.47,0,0,1,1.18-.36,2.41,2.41,0,0,1,1.21.26,2.2,2.2,0,0,1,.9.81,2.44,2.44,0,0,1,.36,1.21,2.38,2.38,0,0,1-.26,1.23,2.27,2.27,0,0,1-.82.89,2.5,2.5,0,0,1-2.39.09Zm2-1.18a1.36,1.36,0,0,0,.29-1,1.4,1.4,0,0,0-.37-1,1.27,1.27,0,0,0-1.78.08,1.38,1.38,0,0,0-.29,1,1.42,1.42,0,0,0,.37,1,1.11,1.11,0,0,0,.91.32A1.08,1.08,0,0,0,54.31,14.25Z"/><path class="cls-3" d="M60.86,16l-1.13-.1-1.62-3-.26,2.85-1.12-.1L57.15,11l1.12.1,1.63,3,.26-2.85,1.12.1Z"/><path class="cls-3" d="M64.9,16l-1.69-.38-.45.74-1.15-.26,2.66-4.15,1.27.28.62,4.89L65,16.81ZM64.8,15l-.18-1.78-.93,1.53Z"/><path class="cls-3" d="M68.18,16.86l1.4.47-.28.83-2.47-.84,1.49-4.39,1.07.36Z"/><path class="cls-3" d="M76,16.48a2.15,2.15,0,0,1,.38,1.12,2.59,2.59,0,0,1-1.1,2.15,2.06,2.06,0,0,1-1.13.35,2.87,2.87,0,0,1-1.26-.32L71.36,19l2.11-4.13,1.54.79A2.72,2.72,0,0,1,76,16.48ZM74.33,19a1.33,1.33,0,0,0,.77-.72,1.24,1.24,0,0,0-.37-1.71l-.22-.11L74,16.22l-1.23,2.4.48.25a1.38,1.38,0,0,0,1,.14Z"/><path class="cls-3" d="M78.77,18.84l-.52.78,1.27.85-.48.72-1.27-.83-.55.85,1.42.94-.49.75-2.38-1.56,2.55-3.87L80.7,19l-.49.75Z"/><path class="cls-3" d="M85.23,22.64,81,25.17l-1.09-.9,1.69-4.62.93.77-1.35,3.42,3.12-1.95Z"/><path class="cls-3" d="M86.2,24.93l-.68.65,1,1.09-.63.6-1-1.08-.73.7,1.19,1.23-.65.63-2-2,3.33-3.22,2,2-.65.63Z"/><path class="cls-3" d="M86.68,29.76l.93,1.15-.68.55-1.64-2,3.6-2.91.71.88Z"/><path class="cls-3" d="M88.15,32.74a2.25,2.25,0,0,1,.25-1.19,2.5,2.5,0,0,1,2.06-1.32,2.33,2.33,0,0,1,1.18.27,2.54,2.54,0,0,1,1.29,2,2.21,2.21,0,0,1-.25,1.18A2.51,2.51,0,0,1,90.62,35a2.32,2.32,0,0,1-1.18-.26,2.58,2.58,0,0,1-.9-.84A2.47,2.47,0,0,1,88.15,32.74Zm2,1.16a1.61,1.61,0,0,0,1.65-1,1.26,1.26,0,0,0-1-1.5,1.6,1.6,0,0,0-1.65,1,1.26,1.26,0,0,0,1,1.5Z"/><path class="cls-3" d="M93.86,38.63a1.4,1.4,0,0,1-.73-.28,2,2,0,0,1-.59-.77l-.3-.63-1.5.72-.49-1,4.17-2,.79,1.65a2.1,2.1,0,0,1,.24.92,1.33,1.33,0,0,1-.23.75,1.67,1.67,0,0,1-.61.51A1.48,1.48,0,0,1,93.86,38.63Zm-.21-1.14a.68.68,0,0,0,.78-.38.66.66,0,0,0-.08-.49l-.26-.56-1,.5.26.56a.74.74,0,0,0,.35.37Z"/><path class="cls-3" d="M98.16,44.17,93.75,45.6l-.35-1.08,2.65-.85-3-.13-.28-.87,2.33-1.85-2.65.86-.35-1.08,4.41-1.42L97,40.44,94.3,42.67l3.45.24Z"/><path class="cls-3" d="M97.81,47.06l-.93.17.28,1.49-.85.16L96,47.41l-1,.18.31,1.69-.88.16-.53-2.79,4.56-.85L99,48.59l-.89.17Z"/><path class="cls-3" d="M94.91,54.5l-.08-1.12,2.71-2.1-2.85.21-.08-1.13L99.23,50l.08,1.13-2.72,2.09L99.45,53l.08,1.12Z"/><path class="cls-3" d="M99.39,59.06l-.9,0,.05-1.23-3.72-.15.05-1.13,3.72.15.06-1.22.9,0Z"/><path class="cls-3" d="M94,63.74l2.29-1.15-2-.38.22-1.11,4.55.87-.21,1.11-2-.38,1.7,1.9-.25,1.3L96.4,63.71l-2.68,1.38Z"/><path class="cls-3" d="M97.66,68.11,93.2,66.85l.31-1.09L98,67Z"/><path class="cls-3" d="M96.88,70.48l-2.59-1a.91.91,0,0,0-.67,0,.77.77,0,0,0-.42.48.74.74,0,0,0,0,.65.91.91,0,0,0,.52.42l2.57,1-.4,1-2.57-1a1.92,1.92,0,0,1-.89-.62,1.64,1.64,0,0,1-.35-.89,2.19,2.19,0,0,1,.15-1,2.05,2.05,0,0,1,.55-.84,1.59,1.59,0,0,1,.84-.41,2.09,2.09,0,0,1,1.08.14l2.58,1Z"/><path class="cls-4" d="M26.44,84a.89.89,0,0,0,0-.51,1.26,1.26,0,0,0-1.15-.87,1.32,1.32,0,0,0-.93.42,1.36,1.36,0,0,0-.49.94,1.3,1.3,0,0,0,.4.94,1.14,1.14,0,0,0,.63.36,1.16,1.16,0,0,0,.73-.11l-1-1,.61-.57,1.68,1.78-.76.72a2,2,0,0,1-.87.23,2.23,2.23,0,0,1-.95-.15,2.38,2.38,0,0,1-.87-.6,2.46,2.46,0,0,1-.64-1.1,2.06,2.06,0,0,1,0-1.18,2.39,2.39,0,0,1,.68-1.06,2.53,2.53,0,0,1,1.09-.62,2.19,2.19,0,0,1,1.19,0,2.47,2.47,0,0,1,1,.69,2.31,2.31,0,0,1,.67,1.29,1.92,1.92,0,0,1-.29,1.32Z"/><path class="cls-4" d="M30.18,85.43l-3,3.51-.86-.74,3-3.51Z"/><path class="cls-4" d="M29.78,89.9l1.19.88-.52.7-2.1-1.55,2.76-3.73.91.67Z"/><path class="cls-4" d="M36.13,91.23a.83.83,0,0,0-.14-.49,1.18,1.18,0,0,0-.42-.38,1.15,1.15,0,0,0-.94-.12,1.39,1.39,0,0,0-.76.67,1.42,1.42,0,0,0-.2,1,1.27,1.27,0,0,0,.66.79,1.1,1.1,0,0,0,.71.16,1.24,1.24,0,0,0,.67-.32l-1.25-.71.41-.72L37,92.36l-.52.91a2.22,2.22,0,0,1-1.71.61,2.44,2.44,0,0,1-1-.32,2.37,2.37,0,0,1-.91-.87,2.16,2.16,0,0,1-.32-1.14,2.63,2.63,0,0,1,1.2-2.12,2.21,2.21,0,0,1,1.14-.32,2.39,2.39,0,0,1,1.22.34,2.35,2.35,0,0,1,1,1,1.91,1.91,0,0,1,.1,1.35Z"/><path class="cls-4" d="M40.13,91.5l-1.86,4.25-1-.45,1.86-4.25Z"/><path class="cls-4" d="M44.46,93.06l-.29.86L43,93.53l-1.19,3.54-1.06-.35L42,93.18l-1.17-.39.29-.86Z"/><path class="cls-4" d="M48,95.76l-.19.91L45,96.07l.19-.91Z"/><path class="cls-4" d="M53.2,97.17a1.21,1.21,0,0,1-.31,1.61,1.7,1.7,0,0,1-1.16.24l-2.15-.19.4-4.61,2.08.18a1.71,1.71,0,0,1,1.08.42,1.19,1.19,0,0,1,0,1.57,1.13,1.13,0,0,1-.61.32A1,1,0,0,1,53.2,97.17ZM52.07,98a.48.48,0,0,0,.19-.36.47.47,0,0,0-.13-.39.6.6,0,0,0-.43-.18L50.88,97l-.09,1,.83.08a.69.69,0,0,0,.45-.09ZM51,96.18l.74.07a.68.68,0,0,0,.44-.09.37.37,0,0,0,.17-.34.44.44,0,0,0-.11-.38.67.67,0,0,0-.42-.16L51,95.22Z"/><path class="cls-4" d="M58.11,98.25l-1.73.08-.24.84L55,99.23l1.46-4.71,1.3-.06L59.62,99l-1.2,0Zm-.34-.86-.65-1.67-.49,1.72Z"/><path class="cls-4" d="M62.25,97.7l1.46-.24.14.86-2.57.42-.77-4.55L61.63,94Z"/><path class="cls-4" d="M67.37,92.62l.25.87-1.19.33,1,3.6-1.09.3-1-3.6-1.18.33-.25-.87Z"/><path class="cls-4" d="M69.39,91.86,71,96.2,70,96.59l-1.62-4.34Z"/><path class="cls-4" d="M73.25,95.13a1.43,1.43,0,0,1-.79-.16,1.3,1.3,0,0,1-.57-.59L73,93.86a.55.55,0,0,0,.33.27.56.56,0,0,0,.42,0,.63.63,0,0,0,.31-.27.36.36,0,0,0,0-.35.35.35,0,0,0-.23-.21.91.91,0,0,0-.33,0,4,4,0,0,0-.5.06,5.14,5.14,0,0,1-.78.07,1.33,1.33,0,0,1-.62-.16,1.06,1.06,0,0,1-.49-.55,1.18,1.18,0,0,1,0-1.11,2.25,2.25,0,0,1,2.21-1.07,1.29,1.29,0,0,1,.89.7l-1.1.53a.5.5,0,0,0-.3-.25.64.64,0,0,0-.41,0,.51.51,0,0,0-.25.25.41.41,0,0,0,.26.53.35.35,0,0,0,.11,0,3.44,3.44,0,0,0,.71,0,6.81,6.81,0,0,1,.78,0,1.31,1.31,0,0,1,.61.15,1,1,0,0,1,.48.53,1.23,1.23,0,0,1,.13.73,1.39,1.39,0,0,1-.3.72,2,2,0,0,1-.73.56A2.39,2.39,0,0,1,73.25,95.13Z"/><path class="cls-4" d="M77.59,87.5l.48.76-1,.66,2,3.15-1,.6-2-3.15-1,.66-.49-.76Z"/><path class="cls-4" d="M83.27,87.85,81.94,89l.31.8-.9.76-1.69-4.63,1-.85,4.26,2.49L84,88.3Zm-.78-.48L81,86.43l.65,1.67Z"/><path class="cls-4" d="M89.07,83.09l-.75.84-3.39-.5,2.13,1.91-.75.84-3.45-3.09.75-.85,3.4.51-2.14-1.91.75-.85Z"/><path class="cls-5" d="M24.63,53.75,41.06,40.13a.89.89,0,0,1,.25-.14l3.42-1.09a.75.75,0,0,0,.34-.21l6-7a.83.83,0,0,1,.52-.25l2.06-.13a.76.76,0,0,1,.47.13l9.72,7a.67.67,0,0,0,.46.13l3.1-.2a.7.7,0,0,1,.4.1l7.42,4.06a.75.75,0,0,0,.74-.05l1.24-.76a.72.72,0,0,1,.91.13L89.59,54A.74.74,0,0,1,89,55.31l-.93,0a.76.76,0,0,1-.48-.17l-9.85-8.51a.74.74,0,0,0-.9,0L75,47.84a.75.75,0,0,1-.86,0l-8-6.11a.7.7,0,0,0-.71-.1l-1.55.56a.77.77,0,0,1-.52,0l-4.13-1.55a.71.71,0,0,0-.82.21l-.61.69a.75.75,0,0,0,0,1l3.31,3.84a.74.74,0,0,1-.14,1,.81.81,0,0,1-.52.15l-12.7-1.77a.76.76,0,0,0-.8.48l-1.14,3.18a.76.76,0,0,1-.53.47L25.85,54.51a.72.72,0,0,1-.66-.16l-.54-.48A.1.1,0,0,1,24.63,53.75Z"/><path class="cls-6" d="M88.2,54.43,74.75,50.29l-15.07-.41-10.84.83-7.24.46-5.4.93L31,52.43l-5.87,2,9.45.21,7.22-.45s7.91-.38,8.22-.52,6.86-1.5,6.86-1.5l6.43,1s7.17,1.24,8.12,1.28a48.51,48.51,0,0,0,5.1-.72Z"/><path class="cls-7" d="M32.23,61.21v6H30.76v-6Z"/><path class="cls-7" d="M41.19,64.09a1.68,1.68,0,0,1-.73.69,2.6,2.6,0,0,1-1.23.27h-.9v2.14H36.87v-6h2.36a2.63,2.63,0,0,1,1.21.25,1.7,1.7,0,0,1,.75.68,1.92,1.92,0,0,1,.24,1A1.87,1.87,0,0,1,41.19,64.09Zm-1.44-.4a.86.86,0,0,0,0-1.11.92.92,0,0,0-.64-.19h-.79v1.5h.79A.88.88,0,0,0,39.75,63.69Z"/><path class="cls-7" d="M49.68,61.58a2.65,2.65,0,0,1,1.09,1.06,3.31,3.31,0,0,1,0,3.12,2.68,2.68,0,0,1-1.1,1.06,3.47,3.47,0,0,1-1.65.37H45.78v-6H48A3.4,3.4,0,0,1,49.68,61.58Zm-.46,3.9a1.72,1.72,0,0,0,.46-1.28,1.6,1.6,0,0,0-1.43-1.75,1.71,1.71,0,0,0-.32,0h-.69v3.48h.69a1.75,1.75,0,0,0,1.29-.45Z"/><path class="cls-7" d="M64.44,67.19l-2-2.64v2.64H61v-6h1.45v2.64l2-2.63h1.71l-2.32,2.93,2.41,3Z"/><path class="cls-7" d="M72,61.21v6H70.5v-6Z"/><path class="cls-7" d="M78,61.21v3.58a1.19,1.19,0,0,0,.27.83,1,1,0,0,0,.77.29,1.05,1.05,0,0,0,.79-.29,1.19,1.19,0,0,0,.27-.83V61.21h1.46v3.57a2.67,2.67,0,0,1-.34,1.36,2.26,2.26,0,0,1-.92.84,2.84,2.84,0,0,1-1.28.28A2.79,2.79,0,0,1,77.78,67a2.06,2.06,0,0,1-.88-.85,2.56,2.56,0,0,1-.32-1.36V61.21Z"/></g></g><path class="cls-4" d="M122.78,42.1V55.44h-3.25V42.1Z"/><path class="cls-4" d="M137.07,55.44h-3.25l-5.44-8.23v8.23h-3.24V42.1h3.24l5.44,8.27V42.1h3.25Z"/><path class="cls-4" d="M141.63,55.1a4.34,4.34,0,0,1-1.86-1.41,3.89,3.89,0,0,1-.73-2.24h3.46a1.69,1.69,0,0,0,.51,1.13,1.66,1.66,0,0,0,1.14.39,1.78,1.78,0,0,0,1.14-.33,1.13,1.13,0,0,0,.42-.93,1.09,1.09,0,0,0-.33-.81,2.37,2.37,0,0,0-.82-.53,12.87,12.87,0,0,0-1.38-.48,14.65,14.65,0,0,1-2.1-.8,3.79,3.79,0,0,1-1.41-1.18,3.28,3.28,0,0,1-.59-2A3.51,3.51,0,0,1,140.43,43,5.56,5.56,0,0,1,144,41.91,5.63,5.63,0,0,1,147.5,43a3.79,3.79,0,0,1,1.44,2.94h-3.51a1.42,1.42,0,0,0-.48-1,1.7,1.7,0,0,0-1.12-.37,1.4,1.4,0,0,0-1,.32,1.13,1.13,0,0,0-.36.9,1.12,1.12,0,0,0,.61,1,10,10,0,0,0,1.9.78,18.76,18.76,0,0,1,2.1.83,4,4,0,0,1,1.39,1.16,3.07,3.07,0,0,1,.59,2,3.8,3.8,0,0,1-.58,2.07A4,4,0,0,1,146.85,55a5.7,5.7,0,0,1-2.6.55A7,7,0,0,1,141.63,55.1Z"/><path class="cls-4" d="M160.7,42.1v2.6h-3.53V55.44h-3.25V44.7h-3.53V42.1Z"/><path class="cls-4" d="M165.59,42.1V55.44h-3.25V42.1Z"/><path class="cls-4" d="M177.54,42.1v2.6H174V55.44h-3.25V44.7h-3.53V42.1Z"/><path class="cls-4" d="M182.36,42.1v8a2.64,2.64,0,0,0,.59,1.84,2.22,2.22,0,0,0,1.73.65,2.3,2.3,0,0,0,1.75-.65,2.6,2.6,0,0,0,.61-1.84v-8h3.24v8a5.71,5.71,0,0,1-.75,3,4.78,4.78,0,0,1-2.05,1.86,6.39,6.39,0,0,1-2.86.63A6.15,6.15,0,0,1,181.8,55a4.64,4.64,0,0,1-2-1.86,6,6,0,0,1-.72-3v-8Z"/><path class="cls-4" d="M202.16,42.1v2.6h-3.53V55.44h-3.25V44.7h-3.54V42.1Z"/><path class="cls-4" d="M207,44.7v2.7h4.35v2.51H207v2.93H212v2.6h-8.17V42.1H212v2.6Z"/><path class="cls-4" d="M221,54.7a6.48,6.48,0,0,1-2.49-2.44,6.88,6.88,0,0,1-.92-3.53,6.81,6.81,0,0,1,.92-3.51A6.56,6.56,0,0,1,221,42.78a7.28,7.28,0,0,1,6.9,0,6.57,6.57,0,0,1,2.47,2.44,7.3,7.3,0,0,1,0,7,6.5,6.5,0,0,1-2.47,2.44,7.26,7.26,0,0,1-6.89,0Zm6-3.16a4.61,4.61,0,0,0,0-5.63,3.67,3.67,0,0,0-5.13,0,4.64,4.64,0,0,0,0,5.65,3.62,3.62,0,0,0,5.13,0Z"/><path class="cls-4" d="M241.72,42.1v2.6h-5.44v2.82h4.07V50h-4.07v5.4H233V42.1Z"/><path class="cls-4" d="M257.09,48.51a3.91,3.91,0,0,1-1.64,1.55,5.74,5.74,0,0,1-2.73.59h-2v4.79h-3.25V42.1h5.27a6,6,0,0,1,2.7.55,3.87,3.87,0,0,1,1.65,1.52,4.4,4.4,0,0,1,.55,2.22A4.33,4.33,0,0,1,257.09,48.51Zm-3.23-.88a1.92,1.92,0,0,0,0-2.47,2,2,0,0,0-1.39-.44H250.7v3.35h1.77A2,2,0,0,0,253.86,47.63Z"/><path class="cls-4" d="M266.11,55.44l-2.77-5h-.78v5h-3.25V42.1h5.45a6,6,0,0,1,2.69.55,3.85,3.85,0,0,1,1.67,1.51,4.29,4.29,0,0,1,.55,2.14,3.94,3.94,0,0,1-.75,2.37,4.06,4.06,0,0,1-2.22,1.49l3.08,5.28Zm-3.55-7.34h2a1.83,1.83,0,0,0,1.34-.43,1.66,1.66,0,0,0,.45-1.24,1.58,1.58,0,0,0-.45-1.19,1.79,1.79,0,0,0-1.34-.44h-2Z"/><path class="cls-4" d="M274.56,54.7a6.48,6.48,0,0,1-2.49-2.44,6.79,6.79,0,0,1-.92-3.53,6.72,6.72,0,0,1,.92-3.51,6.56,6.56,0,0,1,2.49-2.44,7.26,7.26,0,0,1,6.89,0,6.53,6.53,0,0,1,2.48,2.44,6.9,6.9,0,0,1,.9,3.51,7,7,0,0,1-.91,3.53,6.57,6.57,0,0,1-2.47,2.44,7.26,7.26,0,0,1-6.89,0Zm6-3.16a4.61,4.61,0,0,0,0-5.63,3.67,3.67,0,0,0-5.13,0,4.64,4.64,0,0,0,0,5.65,3.62,3.62,0,0,0,5.13,0Z"/><path class="cls-4" d="M295.32,42.1v2.6h-5.44v2.82H294V50h-4.07v5.4h-3.25V42.1Z"/><path class="cls-4" d="M300.27,44.7v2.7h4.35v2.51h-4.35v2.93h4.93v2.6H297V42.1h8.17v2.6Z"/><path class="cls-4" d="M309.51,55.1a4.31,4.31,0,0,1-1.85-1.41,3.83,3.83,0,0,1-.74-2.24h3.46A1.55,1.55,0,0,0,312,53a1.81,1.81,0,0,0,1.15-.33,1.15,1.15,0,0,0,.41-.93,1.09,1.09,0,0,0-.33-.81,2.37,2.37,0,0,0-.82-.53,13.38,13.38,0,0,0-1.37-.48,14.38,14.38,0,0,1-2.11-.8,3.79,3.79,0,0,1-1.41-1.18,3.28,3.28,0,0,1-.59-2A3.51,3.51,0,0,1,308.31,43a6.48,6.48,0,0,1,7.07,0,3.79,3.79,0,0,1,1.44,2.94h-3.51a1.42,1.42,0,0,0-.48-1,1.7,1.7,0,0,0-1.12-.37,1.4,1.4,0,0,0-.95.32,1.13,1.13,0,0,0-.36.9,1.12,1.12,0,0,0,.61,1,10,10,0,0,0,1.9.78,18.76,18.76,0,0,1,2.1.83,4.07,4.07,0,0,1,1.4,1.16,3.13,3.13,0,0,1,.58,2,3.8,3.8,0,0,1-.58,2.07A4,4,0,0,1,314.73,55a5.7,5.7,0,0,1-2.6.55A7,7,0,0,1,309.51,55.1Z"/><path class="cls-4" d="M321.19,55.1a4.31,4.31,0,0,1-1.85-1.41,3.82,3.82,0,0,1-.73-2.24h3.46a1.69,1.69,0,0,0,.51,1.13,1.64,1.64,0,0,0,1.14.39,1.8,1.8,0,0,0,1.14-.33,1.13,1.13,0,0,0,.42-.93,1.09,1.09,0,0,0-.33-.81,2.58,2.58,0,0,0-.82-.53,12.87,12.87,0,0,0-1.38-.48,15.32,15.32,0,0,1-2.11-.8,3.84,3.84,0,0,1-1.4-1.18,3.22,3.22,0,0,1-.59-2A3.51,3.51,0,0,1,320,43a5.55,5.55,0,0,1,3.51-1.05A5.62,5.62,0,0,1,327.06,43a3.83,3.83,0,0,1,1.45,2.94H325a1.37,1.37,0,0,0-.47-1,1.72,1.72,0,0,0-1.12-.37,1.38,1.38,0,0,0-.95.32,1.21,1.21,0,0,0,.24,1.91,10.27,10.27,0,0,0,1.9.78,18.76,18.76,0,0,1,2.1.83,4,4,0,0,1,1.4,1.16,3.13,3.13,0,0,1,.59,2,3.8,3.8,0,0,1-.58,2.07A4.13,4.13,0,0,1,326.42,55a5.74,5.74,0,0,1-2.61.55A7,7,0,0,1,321.19,55.1Z"/><path class="cls-4" d="M333.92,42.1V55.44h-3.25V42.1Z"/><path class="cls-4" d="M339.14,54.7a6.48,6.48,0,0,1-2.49-2.44,6.79,6.79,0,0,1-.92-3.53,6.72,6.72,0,0,1,.92-3.51,6.56,6.56,0,0,1,2.49-2.44,7.26,7.26,0,0,1,6.89,0,6.53,6.53,0,0,1,2.48,2.44,6.9,6.9,0,0,1,.9,3.51,7,7,0,0,1-.91,3.53A6.57,6.57,0,0,1,346,54.7a7.26,7.26,0,0,1-6.89,0Zm6-3.16a4.61,4.61,0,0,0,0-5.63,3.67,3.67,0,0,0-5.13,0,4.64,4.64,0,0,0,0,5.65,3.62,3.62,0,0,0,5.13,0Z"/><path class="cls-4" d="M363.14,55.44H359.9l-5.44-8.23v8.23h-3.25V42.1h3.25l5.44,8.27V42.1h3.24Z"/><path class="cls-4" d="M373.8,53.08h-5l-.8,2.36h-3.4l4.82-13.34h3.76L378,55.44H374.6ZM373,50.57l-1.66-4.88-1.63,4.88Z"/><path class="cls-4" d="M382.75,52.93H387v2.51H379.5V42.1h3.25Z"/><path class="cls-4" d="M175.93,66.94a5.92,5.92,0,0,1,2.44,2.34,7.42,7.42,0,0,1,0,7,5.85,5.85,0,0,1-2.45,2.35,7.74,7.74,0,0,1-3.68.84h-5V66.1h5A7.73,7.73,0,0,1,175.93,66.94Zm-1,8.68a3.79,3.79,0,0,0,1-2.85,3.85,3.85,0,0,0-1-2.87,3.89,3.89,0,0,0-2.87-1H170.5v7.76H172A3.92,3.92,0,0,0,174.9,75.62Z"/><path class="cls-4" d="M184.31,68.7v2.7h4.35v2.51h-4.35v2.93h4.92v2.6h-8.17V66.1h8.17v2.6Z"/><path class="cls-4" d="M203.86,66.1l-4.73,13.34h-4.07L190.33,66.1h3.46l3.31,10.07,3.32-10.07Z"/><path class="cls-4" d="M208.46,68.7v2.7h4.35v2.51h-4.35v2.93h4.92v2.6h-8.17V66.1h8.17v2.6Z"/><path class="cls-4" d="M218.74,76.93H223v2.51h-7.5V66.1h3.25Z"/><path class="cls-4" d="M227.41,78.7a6.55,6.55,0,0,1-2.49-2.44,6.88,6.88,0,0,1-.92-3.53,6.81,6.81,0,0,1,.92-3.51,6.63,6.63,0,0,1,2.49-2.44,7.28,7.28,0,0,1,6.9,0,6.5,6.5,0,0,1,2.47,2.44,6.9,6.9,0,0,1,.9,3.51,7,7,0,0,1-.91,3.53,6.5,6.5,0,0,1-2.47,2.44,7.26,7.26,0,0,1-6.89,0Zm6-3.16a4.61,4.61,0,0,0,0-5.63,3.67,3.67,0,0,0-5.13,0,4.64,4.64,0,0,0,0,5.65,3.62,3.62,0,0,0,5.13,0Z"/><path class="cls-4" d="M249.12,72.51a3.91,3.91,0,0,1-1.64,1.55,5.74,5.74,0,0,1-2.73.59h-2v4.79h-3.25V66.1h5.27a6,6,0,0,1,2.7.55,3.87,3.87,0,0,1,1.65,1.52,4.4,4.4,0,0,1,.55,2.22A4.33,4.33,0,0,1,249.12,72.51Zm-3.23-.88a1.92,1.92,0,0,0,0-2.47,2,2,0,0,0-1.39-.44h-1.77v3.35h1.77A2,2,0,0,0,245.89,71.63Z"/><path class="cls-4" d="M266.45,66.1V79.44H263.2v-8l-3,8h-2.62l-3-8v8h-3.25V66.1h3.84l3.74,9.23,3.71-9.23Z"/><path class="cls-4" d="M272,68.7v2.7h4.35v2.51H272v2.93H277v2.6h-8.17V66.1H277v2.6Z"/><path class="cls-4" d="M291,79.44h-3.25l-5.43-8.23v8.23h-3.25V66.1h3.25l5.43,8.27V66.1H291Z"/><path class="cls-4" d="M302.94,66.1v2.6h-3.53V79.44h-3.25V68.7h-3.53V66.1Z"/><path class="cls-4" d="M316.34,79.44l-4.49-5.89v5.89h-3.24V66.1h3.24V72l4.45-5.85h3.82L315,72.64l5.36,6.8Z"/><path class="cls-4" d="M325.1,66.1V79.44h-3.25V66.1Z"/><path class="cls-4" d="M330.65,66.1v8a2.64,2.64,0,0,0,.58,1.84,2.24,2.24,0,0,0,1.73.65,2.29,2.29,0,0,0,1.75-.65,2.56,2.56,0,0,0,.61-1.84v-8h3.25v8a5.71,5.71,0,0,1-.76,3,4.81,4.81,0,0,1-2,1.86,6.42,6.42,0,0,1-2.86.63,6.2,6.2,0,0,1-2.83-.62,4.56,4.56,0,0,1-2-1.86,6,6,0,0,1-.72-3v-8Z"/></g></g></svg>